<svg xmlns="http://www.w3.org/2000/svg" viewBox="0 0 114.49 114.49"><defs><style>.cls-1,.cls-2{fill:none;stroke:#000;stroke-miterlimit:10;}.cls-1{stroke-width:2.05px;}.cls-2{stroke-width:1.75px;}</style></defs><title>comm</title><g id="圖層_2" data-name="圖層 2"><g id="品牌商標"><g id="白底"><path d="M64.24,86.16,54.77,81.9a1.74,1.74,0,0,0-2.45,1.59V92a1.74,1.74,0,0,0,2.45,1.59l9.47-4.26A1.75,1.75,0,0,0,64.24,86.16Z"/><path class="cls-1" d="M90.64,60.28,87,46.7l-14.77,2L75.85,51a13.21,13.21,0,0,1-11.58,6.56C57,57.53,51.19,52,51.19,45.26S57,33,64.27,33a13.4,13.4,0,0,1,10.06,4.43l11-8a27.59,27.59,0,0,0-21-9.45C49.38,20,37.32,31.31,37.32,45.26S49.38,70.53,64.27,70.53A27.35,27.35,0,0,0,87.4,58.24Z"/><line class="cls-1" x1="94.41" y1="76.29" x2="33.55" y2="76.29"/><line class="cls-1" x1="92.02" y1="13.42" x2="35.31" y2="13.42"/><line class="cls-1" x1="63.36" y1="58.03" x2="63.36" y2="3.11"/><path class="cls-1" d="M19.51,98a8.81,8.81,0,0,0,7-8.69c.12-6.69,0-52.65,0-52.65"/><line class="cls-1" x1="51.32" y1="43.51" x2="71.95" y2="43.51"/><path class="cls-1" d="M29.73,17.31a9.4,9.4,0,0,0-9.71,6c-3.18,7.26-5.63,34.05-6.52,43.43-.8,8.41-8,8.41-8,8.41"/><path class="cls-1" d="M55.42,98.76c.52,1.33,2.8,1.95,4.09,1.95h8.73c4.23,0,7.66-2.91,7.66-6.51v-25"/><circle class="cls-2" cx="57.24" cy="57.24" r="56.37"/></g></g></g></svg>