<svg xmlns="http://www.w3.org/2000/svg" viewBox="0 0 342.96 93.09"><defs><style>.cls-1,.cls-2,.cls-3{fill:none;}.cls-2,.cls-3{stroke:#000;stroke-miterlimit:10;}.cls-2{stroke-width:1.5px;}.cls-3{stroke-width:1.3px;}</style></defs><title>logo_1</title><g id="圖層_2" data-name="圖層 2"><g id="圖層_1-2" data-name="圖層 1"><rect class="cls-1" width="342.96" height="93.09"/><path d="M65.67,65.52,59.5,62.75a1.13,1.13,0,0,0-1.6,1v5.55a1.13,1.13,0,0,0,1.6,1l6.17-2.78A1.14,1.14,0,0,0,65.67,65.52Z"/><path class="cls-2" d="M82.87,48.67l-2.35-8.85L70.9,41.13l2.33,1.47a8.61,8.61,0,0,1-7.54,4.27,8.26,8.26,0,0,1-8.52-8,8.26,8.26,0,0,1,8.52-8,8.73,8.73,0,0,1,6.55,2.88l7.14-5.2a18,18,0,0,0-13.69-6.15c-9.7,0-17.55,7.37-17.55,16.46S56,55.34,65.69,55.34a17.81,17.81,0,0,0,15.06-8Z"/><line class="cls-2" x1="85.32" y1="59.09" x2="45.68" y2="59.09"/><line class="cls-2" x1="83.76" y1="18.15" x2="46.83" y2="18.15"/><line class="cls-2" x1="65.09" y1="47.2" x2="65.09" y2="11.43"/><path class="cls-2" d="M36.54,73.21a5.76,5.76,0,0,0,4.59-5.67c.08-4.35,0-34.28,0-34.28"/><line class="cls-2" x1="57.25" y1="37.74" x2="70.69" y2="37.74"/><path class="cls-2" d="M43.19,20.68a6.12,6.12,0,0,0-6.32,3.88c-2.07,4.72-3.67,22.17-4.25,28.28-.52,5.47-5.24,5.47-5.24,5.47"/><path class="cls-2" d="M59.93,73.73c.33.86,1.82,1.27,2.66,1.27h5.69c2.75,0,5-1.9,5-4.24V54.44"/><circle class="cls-3" cx="61.11" cy="46.69" r="36.71"/><path d="M115.41,25.16h18.21V43.32H115.41Zm1.93,16.34h14.27V27H117.34Zm7.15-3-6.16,1.14-.22-1.53,6.34-1Zm-.06.06a8.77,8.77,0,0,0,1.37-1.43,31.06,31.06,0,0,1-1.08-6.09h-6.39V29.53h6.27l-.13-2.09h1.68c0,.52,0,1.22.11,2.09h4.46v1.52h-4.34a42.62,42.62,0,0,0,.64,4.27,13.64,13.64,0,0,0,1.35-3.47l1.62.34a16.83,16.83,0,0,1-2.32,5.16c.38,1,.85,1.54,1.41,1.64.11,0,.2-.08.29-.37l.29-1.79,1.28,1a4.36,4.36,0,0,1-.87,2.53,1.32,1.32,0,0,1-1.62.31,3.34,3.34,0,0,1-2-1.81A12,12,0,0,1,123.87,41l-1.12-1.24A12.31,12.31,0,0,0,124.43,38.57ZM119,32.21h4.81V36.4H119Zm3.4,3V33.37h-2v1.86Zm7-5.7A7.85,7.85,0,0,0,127.17,28l1-1a8.11,8.11,0,0,1,2.22,1.46Z"/><path d="M149.69,40.48h6.37v2H137.58v-2h10a46.1,46.1,0,0,0,1.6-4.58c.54-1.81,1-3.49,1.28-5l2.18.41A78.39,78.39,0,0,1,149.69,40.48ZM155.21,28V30H138.47V28Zm-10.1,11.22-2.05.52a60.44,60.44,0,0,0-1.87-8.45l1.95-.47A64.4,64.4,0,0,1,145.11,39.24Zm3-11.89-2,.58a23.36,23.36,0,0,0-1-3.38l1.91-.47C147.57,25.43,147.94,26.52,148.16,27.35Z"/><path d="M178.63,29.82h-1.37A24.13,24.13,0,0,1,174.68,38a10.23,10.23,0,0,0,4.11,3.56,6,6,0,0,0-1.31,1.64,11.47,11.47,0,0,1-4-3.48,13.83,13.83,0,0,1-4.46,3.54,5.84,5.84,0,0,0-1.12-1.7A11.24,11.24,0,0,0,172.45,38a21.41,21.41,0,0,1-1.93-5.22c-.35.58-.71,1.13-1.08,1.66a7.36,7.36,0,0,0-1.16-1.06H166v4.77l3.26-.69.19,1.75q-6.45,1.53-9.63,2.22l-.35-1.93,1.16-.23v-9h1.74v8.67l1.75-.38V27.44h-4.23V25.57h9.41v1.87H166v4.1h2.6v.65a22.22,22.22,0,0,0,2.76-8l1.9.33c-.19,1-.47,2.22-.83,3.49h6.23Zm-6.83,0-.12.33a24.29,24.29,0,0,0,1.91,6,22.92,22.92,0,0,0,1.74-6.29Z"/><path d="M186.78,32.27l-1.08,1.6a31.86,31.86,0,0,0-3.88-2.24l1.06-1.46A25,25,0,0,1,186.78,32.27Zm-2.8,11-1.7-1.31a51.78,51.78,0,0,0,4-6.63l1.43,1.28Q185.83,40.26,184,43.24Zm4.15-16.63L187,28.23a26.41,26.41,0,0,0-3.94-2.33l1.1-1.43A29,29,0,0,1,188.13,26.61Zm12.71,6.2-1.79,1-.66-1.28c-4.42.32-7.18.52-8.25.62a9.75,9.75,0,0,0-2.16.35,11,11,0,0,0-.62-1.84q.93-.21,3.09-3.86a28.19,28.19,0,0,0,1.82-3.59l2,.58a43.84,43.84,0,0,1-3.95,6.43l6.95-.41a33,33,0,0,0-2.42-3.16l1.68-.85A36.27,36.27,0,0,1,199,29.88,21.68,21.68,0,0,1,200.84,32.81Zm-12.16,9.81V35h10.67v7.61Zm8.7-5.81h-6.81v4h6.81Z"/><path d="M222.8,32h-7.57a18.19,18.19,0,0,0,3.1,5.82,12.35,12.35,0,0,0,4.85,3.64,6.09,6.09,0,0,0-1.44,1.8q-5.4-2.51-8-9.56a14.4,14.4,0,0,1-8,9.56,6.18,6.18,0,0,0-1.47-1.62A13,13,0,0,0,212,32h-7.36V30h7.71c.14-1.11.22-3,.25-5.73h2.09a51.78,51.78,0,0,1-.29,5.73h8.36Z"/><path d="M245.22,37.77v1.57h-8.07v2A2.33,2.33,0,0,1,237,42.4a1.45,1.45,0,0,1-.84.59,13.87,13.87,0,0,1-3.32.23,5.91,5.91,0,0,0-.62-1.64c.76,0,1.43,0,2,0a3,3,0,0,0,1-.07.32.32,0,0,0,.1-.28V39.34h-8.51V37.77h8.51V37a19.78,19.78,0,0,0,2.8-1.41h-7.43V34.2H240l.41-.11,1.1,1a20.23,20.23,0,0,1-4.4,2.51v.17ZM229,33v2.51h-1.82v-4h1.57l-.37-6.13a36.82,36.82,0,0,0,4.07-1.06l.83,1.14a19,19,0,0,1-3.05.81l.06.83h2.84v1.24h-2.78l.06,1h2.8v1.22a12.14,12.14,0,0,0,1.75-1,13.58,13.58,0,0,0-1.35-.74l.93-.81c.58.29,1.07.55,1.45.79a6.62,6.62,0,0,0,.94-1l1.3.42a11.91,11.91,0,0,1-1.14,1.26,9.11,9.11,0,0,1,1.37,1.06l-1,.89a10.18,10.18,0,0,0-1.39-1.1,16.56,16.56,0,0,1-1.87,1.22h7.24c0-.18.05-.49.1-.95h-2.76V29.37h2.85l.08-1h-2.82V27.17h2.9l0-.94h-3.05V25h4.94c-.11,2.22-.26,4.43-.46,6.61h1.58v4H243V33Zm1.52-2.41,0,.95h3.55a4.4,4.4,0,0,0-1-.95Zm7.86-3.73-1,.87a7.8,7.8,0,0,0-1.28-1,11.73,11.73,0,0,1-1.79,1.14,9.93,9.93,0,0,0-1-.89,8.47,8.47,0,0,0,1.7-.95,12.21,12.21,0,0,0-1.31-.69l.93-.8a15.63,15.63,0,0,1,1.39.72,5.46,5.46,0,0,0,.87-.91l1.31.35A8.62,8.62,0,0,1,237.11,26,8.24,8.24,0,0,1,238.38,26.9Z"/><path d="M265,36.06v1.21h2.8V38.8H265v2.57a2.44,2.44,0,0,1-.19,1.1,1.1,1.1,0,0,1-.7.54,11.89,11.89,0,0,1-3.3.27,6.37,6.37,0,0,0-.56-1.64,14.18,14.18,0,0,0,2.76,0,.39.39,0,0,0,.12-.31V38.8h-5.37a13.29,13.29,0,0,1,2.35,2.47l-1.5,1a14.23,14.23,0,0,0-2.53-2.82l1.1-.67H254.1V37.27h9.06V36.13q-5,.16-8.48.22l-.17-1.49c1.61,0,3.48,0,5.63-.06V33.72h-4.69V28.16h4.69v-1h-5.52V25.88A31,31,0,0,1,253,29.22v14h-1.83V32.08a23.28,23.28,0,0,1-1.78,2.16,11.64,11.64,0,0,0-1.06-2,18.23,18.23,0,0,0,2.76-3.57,25.7,25.7,0,0,0,2.16-4.41l1.8.53c-.07.2-.18.49-.35.88h5.46V24.39H262v1.33h5.6v1.45H262v1h4.88v5.56h-1.27A14.21,14.21,0,0,1,268,36l-1.36.85c-.23-.3-.45-.58-.69-.85Zm-7.82-6.76v1.08h2.93V29.3Zm0,3.28h2.93v-1.1h-2.93ZM265,29.3h-3v1.08h3Zm-3,3.28h3v-1.1h-3Zm0,1.14v1.06l2.59,0q-.5-.47-1-.87l.25-.15Z"/><path d="M290.25,34.43l-1.08,1.2-.25-.25v7.07H278.3V35.73l-.64.33-1-1.24-1.35.5v5.81c0,.91-.25,1.5-.75,1.76a6.34,6.34,0,0,1-2.7.37,4.83,4.83,0,0,0-.51-1.78h2.11l.08-5.5-2.34.83-.37-1.87c.51-.15,1.41-.44,2.71-.87v-4h-2.4V28.27h2.4v-4h1.77v4h2.07v1.47h5.25V26.61c-1.69.11-3.24.18-4.65.22l-.41-1.43a72,72,0,0,0,10.76-1.07l1,1.43a48.78,48.78,0,0,1-5,.68v3.3h1.08a19.6,19.6,0,0,0,1.28-3.24l1.66.48c-.55,1.26-1,2.18-1.28,2.76h2.78v1.51H286A28.36,28.36,0,0,1,290.25,34.43Zm-13.19-1.6.27,1.47a11,11,0,0,0,3.88-3h-3.88v-1.2h-2v3.4Zm1.78-5.54,1.54-.48a21.56,21.56,0,0,1,1.12,2.33l-1.6.54A22,22,0,0,0,278.84,27.29Zm.58,7.76h9.13A37.24,37.24,0,0,0,284.38,32v2.63h-1.74V32A13.24,13.24,0,0,1,279.42,35.05Zm3.28,3v-1.5H280v1.5ZM280,39.42V41h2.7v-1.6Zm7.14-1.36v-1.5h-2.86v1.5Zm-2.86,3h2.86v-1.6h-2.86Z"/><path d="M312.11,37.77v1.57H304v2a2.19,2.19,0,0,1-.2,1.07A1.45,1.45,0,0,1,303,43a13.87,13.87,0,0,1-3.32.23,5.65,5.65,0,0,0-.63-1.64c.76,0,1.44,0,2,0a3.06,3.06,0,0,0,1-.07.35.35,0,0,0,.1-.28V39.34h-8.51V37.77h8.51V37a19.78,19.78,0,0,0,2.8-1.41h-7.43V34.2h9.4l.41-.11,1.1,1A20.47,20.47,0,0,1,304,37.6v.17ZM295.89,33v2.51h-1.82v-4h1.57l-.37-6.13a36.77,36.77,0,0,0,4.06-1.06l.83,1.14a18.83,18.83,0,0,1-3,.81l.06.83H300v1.24h-2.78l.06,1h2.8v1.22a11.48,11.48,0,0,0,1.74-1,12.48,12.48,0,0,0-1.34-.74l.93-.81c.58.29,1.06.55,1.45.79a6.06,6.06,0,0,0,.93-1l1.31.42A11.91,11.91,0,0,1,304,29.51a9.66,9.66,0,0,1,1.37,1.06l-1,.89a9.59,9.59,0,0,0-1.39-1.1,15.4,15.4,0,0,1-1.86,1.22h7.24c0-.18,0-.49.1-.95H305.7V29.37h2.84l.09-1h-2.82V27.17h2.9l0-.94H305.7V25h4.94c-.11,2.22-.26,4.43-.46,6.61h1.58v4h-1.91V33Zm1.52-2.41,0,.95H301a4.36,4.36,0,0,0-1-.95Zm7.86-3.73-1,.87a8.27,8.27,0,0,0-1.28-1,11.73,11.73,0,0,1-1.79,1.14,9.64,9.64,0,0,0-1.06-.89,8.55,8.55,0,0,0,1.71-.95,12.21,12.21,0,0,0-1.31-.69l.93-.8a15.63,15.63,0,0,1,1.39.72,5.46,5.46,0,0,0,.87-.91l1.31.35A10.08,10.08,0,0,1,304,26,8.24,8.24,0,0,1,305.27,26.9Z"/><path d="M321.36,25l1.27.73q-1.06,3.06-1.93,5.33a6.92,6.92,0,0,1,1.68,4.41,3,3,0,0,1-.85,2.53,2.16,2.16,0,0,1-1,.39,11.76,11.76,0,0,1-1.52.07,3.66,3.66,0,0,0-.44-1.68q.76,0,1.08,0a1.1,1.1,0,0,0,.58-.18,1.66,1.66,0,0,0,.42-1.34,6,6,0,0,0-1.7-4c.55-1.45,1-2.94,1.45-4.48h-2.26V43.22h-1.7V25.07h4.62Zm10.18,16.36h1.17q.29,0,.39-.45a13.07,13.07,0,0,0,.12-2.1,3.69,3.69,0,0,0,1.62.71,7.16,7.16,0,0,1-.53,2.78,1.47,1.47,0,0,1-1.4.7h-1.68a2,2,0,0,1-1.57-.46,2.89,2.89,0,0,1-.4-1.8V35.84h-1.8a10.5,10.5,0,0,1-1.38,4.7,7.19,7.19,0,0,1-3.87,2.72,4.17,4.17,0,0,0-1.1-1.53,6,6,0,0,0,3.34-2.13,8,8,0,0,0,1.14-3.76H322.9V34.12h11.67v1.72h-3.48v4.87a1.14,1.14,0,0,0,.08.53C331.23,41.32,331.35,41.35,331.54,41.35Zm-7.07-9.25V30.53h-1.64V26.71h5a15.44,15.44,0,0,0-1-2.14l1.78-.51A12.68,12.68,0,0,1,330,26.71h4.52v3.82h-1.64V32.1Zm8.15-3.71h-8v2h8Z"/><path d="M122.37,58.66a3.55,3.55,0,0,1-2.68,1.14,3.43,3.43,0,0,1-2.62-1.12,4.26,4.26,0,0,1-1-3,4.21,4.21,0,0,1,1-3,3.59,3.59,0,0,1,2.73-1.12,3,3,0,0,1,2.31,1l-.41.42a2.57,2.57,0,0,0-1.9-.79,2.76,2.76,0,0,0-2.21.94,3.82,3.82,0,0,0-.81,2.57,3.93,3.93,0,0,0,.81,2.6,2.59,2.59,0,0,0,2.09,1,3.1,3.1,0,0,0,2.26-1Z"/><path d="M131.73,55.65a4.33,4.33,0,0,1-1,3,3.59,3.59,0,0,1-5.25,0,4.38,4.38,0,0,1-1-3,4.29,4.29,0,0,1,1-3,3.64,3.64,0,0,1,5.25,0A4.25,4.25,0,0,1,131.73,55.65Zm-6.51,0a4,4,0,0,0,.78,2.59,2.58,2.58,0,0,0,2.1,1,2.55,2.55,0,0,0,2.09-1,4,4,0,0,0,.8-2.59,3.86,3.86,0,0,0-.8-2.56,2.8,2.8,0,0,0-4.19,0A3.91,3.91,0,0,0,125.22,55.64Z"/><path d="M134.94,59.66v-8h.73v7.4h4v.57Z"/><path d="M142.42,59.66v-8h.72v7.4h4v.57Z"/><path d="M149.9,59.66v-8h4.85v.55h-4.13v2.91h3.48v.56h-3.48v3.38h4.26v.57Z"/><path d="M163.87,58.89a4.08,4.08,0,0,1-5.38-.21,4.23,4.23,0,0,1-1.05-3,4.14,4.14,0,0,1,1.08-3,3.76,3.76,0,0,1,2.83-1.12,3.42,3.42,0,0,1,2.43,1l-.42.42a2.76,2.76,0,0,0-2-.79,3,3,0,0,0-2.31.94,3.7,3.7,0,0,0-.85,2.58,3.83,3.83,0,0,0,.82,2.59,2.87,2.87,0,0,0,2.29,1,2.7,2.7,0,0,0,1.87-.57v-2.4h-2v-.55h2.72Z"/><path d="M167.29,59.66v-8h4.85v.55H168v2.91h3.48v.56H168v3.38h4.26v.57Z"/><path d="M186,55.65a4.33,4.33,0,0,1-1,3,3.59,3.59,0,0,1-5.25,0,4.38,4.38,0,0,1-1-3,4.29,4.29,0,0,1,1-3,3.64,3.64,0,0,1,5.25,0A4.25,4.25,0,0,1,186,55.65Zm-6.51,0a4,4,0,0,0,.78,2.59,2.74,2.74,0,0,0,4.2,0,4,4,0,0,0,.79-2.59,3.92,3.92,0,0,0-.79-2.56,2.62,2.62,0,0,0-2.11-.94,2.57,2.57,0,0,0-2.09.94A3.91,3.91,0,0,0,179.46,55.64Z"/><path d="M189.18,59.66v-8H194v.55h-4.11v3.08h3.47v.55h-3.47v3.79Z"/><path d="M206.43,58.66a3.55,3.55,0,0,1-2.68,1.14,3.43,3.43,0,0,1-2.62-1.12,4.26,4.26,0,0,1-1-3,4.21,4.21,0,0,1,1.05-3,3.59,3.59,0,0,1,2.73-1.12,3,3,0,0,1,2.31,1l-.41.42a2.57,2.57,0,0,0-1.9-.79,2.76,2.76,0,0,0-2.21.94,3.82,3.82,0,0,0-.81,2.57,3.93,3.93,0,0,0,.81,2.6,2.59,2.59,0,0,0,2.09,1,3.09,3.09,0,0,0,2.26-1Z"/><path d="M215.79,55.65a4.33,4.33,0,0,1-1,3,3.59,3.59,0,0,1-5.25,0,4.38,4.38,0,0,1-1-3,4.29,4.29,0,0,1,1-3,3.64,3.64,0,0,1,5.25,0A4.25,4.25,0,0,1,215.79,55.65Zm-6.51,0a4,4,0,0,0,.79,2.59,2.55,2.55,0,0,0,2.09,1,2.58,2.58,0,0,0,2.1-1,4,4,0,0,0,.79-2.59,3.92,3.92,0,0,0-.79-2.56,2.62,2.62,0,0,0-2.11-.94,2.57,2.57,0,0,0-2.09.94A3.91,3.91,0,0,0,209.28,55.64Z"/><path d="M219,59.66v-8h1l1.8,4.58c.2.48.43,1.07.69,1.75h0c.09-.23.21-.56.37-1l.28-.76L225,51.69h1v8h-.69v-5c0-.43,0-1.17.09-2.2h0l-.69,1.78-1.84,4.61h-.57l-1.85-4.61-.69-1.78h0c.06,1,.09,1.77.09,2.2v5Z"/><path d="M229.67,59.66v-8h1l1.81,4.58c.2.48.42,1.07.68,1.75h0c.09-.23.21-.56.37-1s.25-.68.28-.76l1.8-4.58h1v8h-.68v-5c0-.43,0-1.17.08-2.2h0l-.68,1.78-1.84,4.61h-.58L231,54.19l-.68-1.78h-.05c.05,1,.08,1.77.08,2.2v5Z"/><path d="M243.29,59.8a4,4,0,0,1-1.13-.16,2.86,2.86,0,0,1-.95-.52,3.19,3.19,0,0,1-.91-2.58V51.69H241v4.82a2.82,2.82,0,0,0,.63,2.07,2.2,2.2,0,0,0,1.65.63,2.29,2.29,0,0,0,1.67-.63,2.77,2.77,0,0,0,.64-2.07V51.69h.69v4.85q0,2.52-1.86,3.09A3.8,3.8,0,0,1,243.29,59.8Z"/><path d="M250,59.66v-8h.75l3.58,5.47,1,1.61h.06c-.07-1.05-.1-1.84-.1-2.36V51.69H256v8h-.75l-3.57-5.49-1-1.6h-.06c.07,1.36.1,2.13.1,2.31v4.78Z"/><path d="M259.72,59.66v-8h.72v8Z"/><path d="M270,58.66a3.53,3.53,0,0,1-2.67,1.14,3.42,3.42,0,0,1-2.62-1.12,4.89,4.89,0,0,1,0-6,3.59,3.59,0,0,1,2.73-1.12,3,3,0,0,1,2.31,1l-.41.42a2.55,2.55,0,0,0-1.9-.79,2.74,2.74,0,0,0-2.2.94,3.82,3.82,0,0,0-.81,2.57,3.92,3.92,0,0,0,.8,2.6,2.62,2.62,0,0,0,2.1,1,3.08,3.08,0,0,0,2.25-1Z"/><path d="M271.75,59.66l3.07-8h.75l3.06,8h-.77l-1-2.68h-3.42l-1,2.68ZM274.21,55l-.54,1.44h3L276.17,55q-.46-1.17-1-2.73h0C274.91,53.08,274.59,54,274.21,55Z"/><path d="M282.44,59.66V52.24h-2.75v-.55h6.25v.55h-2.76v7.42Z"/><path d="M288.81,59.66v-8h.72v8Z"/><path d="M300,55.65a4.38,4.38,0,0,1-1,3,3.6,3.6,0,0,1-5.26,0,4.38,4.38,0,0,1-1-3,4.29,4.29,0,0,1,1-3,3.65,3.65,0,0,1,5.26,0A4.29,4.29,0,0,1,300,55.65Zm-6.52,0a4,4,0,0,0,.79,2.59,2.73,2.73,0,0,0,4.19,0,4,4,0,0,0,.79-2.59,3.86,3.86,0,0,0-.79-2.56,2.6,2.6,0,0,0-2.1-.94,2.58,2.58,0,0,0-2.1.94A3.91,3.91,0,0,0,293.48,55.64Z"/><path d="M303.21,59.66v-8H304l3.58,5.47,1,1.61h.06c-.06-1.05-.09-1.84-.09-2.36V51.69h.68v8h-.74l-3.57-5.49-1-1.6h-.06q.09,2,.09,2.31v4.78Z"/><path d="M116.6,73.67v-8h.74l3.58,5.48,1,1.61H122c-.07-1.05-.1-1.84-.1-2.37V65.7h.69v8h-.75l-3.57-5.49-1-1.59h-.06c.07,1.36.1,2.13.1,2.3v4.78Z"/><path d="M125.12,73.67l3.07-8h.74l3.07,8h-.77l-1-2.68h-3.41l-1,2.68ZM127.57,69,127,70.47h3L129.53,69c-.3-.78-.62-1.7-1-2.74h0C128.27,67.09,128,68,127.57,69Z"/><path d="M135.81,73.67V66.26h-2.75V65.7h6.25v.56h-2.77v7.41Z"/><path d="M142.17,73.67v-8h.72v8Z"/><path d="M153.36,69.67a4.33,4.33,0,0,1-1,3,3.61,3.61,0,0,1-5.25,0,4.38,4.38,0,0,1-1-3,4.29,4.29,0,0,1,1-3,3.64,3.64,0,0,1,5.25,0A4.25,4.25,0,0,1,153.36,69.67Zm-6.51,0a4,4,0,0,0,.79,2.59,2.54,2.54,0,0,0,2.09,1,2.57,2.57,0,0,0,2.1-1,4,4,0,0,0,.79-2.59,3.9,3.9,0,0,0-.79-2.56,2.62,2.62,0,0,0-2.11-.95,2.58,2.58,0,0,0-2.09.95A3.89,3.89,0,0,0,146.85,69.66Z"/><path d="M156.58,73.67v-8h.74l3.58,5.48,1,1.61h.06c-.07-1.05-.1-1.84-.1-2.37V65.7h.69v8h-.75l-3.57-5.49-1-1.59h-.06c.07,1.36.1,2.13.1,2.3v4.78Z"/><path d="M165.1,73.67l3.07-8h.74l3.07,8h-.77l-1-2.68h-3.42l-1,2.68ZM167.55,69,167,70.47h3L169.51,69c-.3-.78-.62-1.7-1-2.74h-.05C168.25,67.09,167.94,68,167.55,69Z"/><path d="M174.54,73.67v-8h.72v7.4h4v.57Z"/><path d="M191.66,72.68A3.56,3.56,0,0,1,189,73.81a3.4,3.4,0,0,1-2.63-1.12,4.29,4.29,0,0,1-1-3,4.23,4.23,0,0,1,1-3,3.56,3.56,0,0,1,2.73-1.12,3,3,0,0,1,2.31,1L191,67a2.56,2.56,0,0,0-1.9-.8,2.75,2.75,0,0,0-2.2.95,3.76,3.76,0,0,0-.82,2.57,3.88,3.88,0,0,0,.81,2.59,2.62,2.62,0,0,0,2.1,1,3.08,3.08,0,0,0,2.25-1Z"/><path d="M194.63,73.67v-8h.72v3.46h4.56V65.7h.72v8h-.72V69.73h-4.56v3.94Z"/><path d="M204.37,73.67v-8h4.85v.56h-4.13v2.91h3.48v.56h-3.48V73.1h4.26v.57Z"/><path d="M212.46,73.67v-8h.75l3.58,5.48,1,1.61h.06c-.07-1.05-.1-1.84-.1-2.37V65.7h.69v8h-.75l-3.57-5.49-1-1.59h-.06c.07,1.36.1,2.13.1,2.3v4.78Z"/><path d="M228.05,72.91a3.67,3.67,0,0,1-2.64.9,3.57,3.57,0,0,1-2.75-1.12,4.21,4.21,0,0,1-1-3,4.12,4.12,0,0,1,1.08-3,3.74,3.74,0,0,1,2.83-1.12,3.39,3.39,0,0,1,2.43,1l-.42.43a2.77,2.77,0,0,0-2-.8,3,3,0,0,0-2.31.95,3.75,3.75,0,0,0-.85,2.58,3.88,3.88,0,0,0,.82,2.59,2.9,2.9,0,0,0,2.3,1,2.69,2.69,0,0,0,1.86-.57V70.26h-2V69.7h2.73Z"/><path d="M237.23,72.68a3.56,3.56,0,0,1-2.67,1.13,3.37,3.37,0,0,1-2.62-1.12,4.88,4.88,0,0,1,0-6,3.56,3.56,0,0,1,2.73-1.12,3,3,0,0,1,2.31,1l-.41.43a2.56,2.56,0,0,0-1.9-.8,2.75,2.75,0,0,0-2.2.95,3.81,3.81,0,0,0-.81,2.57,3.88,3.88,0,0,0,.8,2.59,2.62,2.62,0,0,0,2.1,1,3.08,3.08,0,0,0,2.25-1Z"/><path d="M240.2,73.67v-8h.72v3.46h4.56V65.7h.72v8h-.72V69.73h-4.56v3.94Z"/><path d="M249.94,73.67v-8h.72v8Z"/><path d="M261.24,73.81a4,4,0,0,1-1.13-.15,2.86,2.86,0,0,1-.95-.52,3.23,3.23,0,0,1-.91-2.58V65.7H259v4.82a2.86,2.86,0,0,0,.63,2.08,2.21,2.21,0,0,0,1.65.62,2.27,2.27,0,0,0,1.67-.62,2.82,2.82,0,0,0,.65-2.08V65.7h.68v4.86q0,2.52-1.86,3.09A3.81,3.81,0,0,1,261.24,73.81Z"/><path d="M268,73.67v-8h.74l3.59,5.48,1,1.61h.06c-.07-1.05-.1-1.84-.1-2.37V65.7h.69v8h-.75l-3.57-5.49-1-1.59h-.06c.06,1.36.09,2.13.09,2.3v4.78Z"/><path d="M277.67,73.67v-8h.72v8Z"/><path d="M283.79,73.67l-2.87-8h.77l1.57,4.58q.89,2.61.9,2.67h0q.33-.9.93-2.67l1.56-4.58h.73l-2.85,8Z"/><path d="M290,73.67v-8h4.84v.56h-4.12v2.91h3.47v.56h-3.47V73.1h4.26v.57Z"/><path d="M298.05,73.67v-8h2.56c1.95,0,2.92.71,2.92,2.13a2,2,0,0,1-.58,1.49,2.79,2.79,0,0,1-1.6.7l2.36,3.65h-.81l-2.34-3.59h-1.79v3.59Zm.72-4.14h1.67c1.58,0,2.36-.57,2.36-1.7a1.33,1.33,0,0,0-.59-1.21,3.33,3.33,0,0,0-1.77-.37h-1.67Z"/><path d="M308.7,73.81a4,4,0,0,1-3-1.19l.45-.46a3.38,3.38,0,0,0,2.53,1.06,2.54,2.54,0,0,0,1.54-.42,1.29,1.29,0,0,0,.57-1.09,1.25,1.25,0,0,0-.37-1,4.44,4.44,0,0,0-1.18-.64L308,69.55a2.89,2.89,0,0,1-1.63-1.23,1.87,1.87,0,0,1-.15-.76,1.75,1.75,0,0,1,.73-1.44,3,3,0,0,1,1.86-.56,3.38,3.38,0,0,1,2.48,1l-.41.43a2.93,2.93,0,0,0-2.07-.8,2.23,2.23,0,0,0-1.35.37,1.17,1.17,0,0,0-.51,1,1.14,1.14,0,0,0,.52,1,5.12,5.12,0,0,0,1,.49l1.31.53a4.17,4.17,0,0,1,1.37.82,1.83,1.83,0,0,1,.47,1.35,1.86,1.86,0,0,1-.78,1.5A3.24,3.24,0,0,1,308.7,73.81Z"/><path d="M314.56,73.67v-8h.72v8Z"/><path d="M320.9,73.67V66.26h-2.76V65.7h6.26v.56h-2.77v7.41Z"/><path d="M328.48,73.67v-3.2l-2.63-4.77h.77l1.29,2.44c.08.17.23.44.43.83l.48.9h.05c.46-.82.78-1.39.94-1.73l1.28-2.44h.75l-2.63,4.77v3.2Z"/></g></g></svg>