<svg xmlns="http://www.w3.org/2000/svg" viewBox="0 0 219.43 49.76"><title>資產 1</title><g id="圖層_2" data-name="圖層 2"><g id="圖層_1-2" data-name="圖層 1"><path d="M0,1.1H18.21V19.27H0ZM1.93,17.44H16.2V2.92H1.93Zm7.15-3L2.92,15.6,2.7,14.06q1.79-.24,6.34-1ZM9,14.52a8.77,8.77,0,0,0,1.37-1.43A31.33,31.33,0,0,1,9.31,7H2.92V5.48H9.19l-.13-2.1h1.68c0,.53,0,1.22.11,2.1h4.46V7H11a42.18,42.18,0,0,0,.64,4.27A13.57,13.57,0,0,0,13,7.8l1.62.33a16.83,16.83,0,0,1-2.32,5.16c.38,1,.85,1.55,1.41,1.64.11,0,.2-.08.29-.37l.29-1.78,1.28,1a4.29,4.29,0,0,1-.87,2.53,1.31,1.31,0,0,1-1.61.31,3.3,3.3,0,0,1-2-1.8,12.55,12.55,0,0,1-2.62,2.17L7.34,15.7A12.26,12.26,0,0,0,9,14.52ZM3.61,8.15H8.42v4.19H3.61Zm3.4,3V9.31H5v1.87Zm7-5.7A7.85,7.85,0,0,0,11.76,4l1-1a7.81,7.81,0,0,1,2.22,1.45Z"/><path d="M34.28,16.43h6.37v1.95H22.17V16.43h10a47.31,47.31,0,0,0,1.6-4.59c.54-1.81,1-3.48,1.28-5l2.18.42A79,79,0,0,1,34.28,16.43ZM39.8,4v2H23.06V4ZM29.7,15.18l-2.05.52a60.36,60.36,0,0,0-1.87-8.44l1.95-.48A64.4,64.4,0,0,1,29.7,15.18ZM32.75,3.3l-2,.58a23,23,0,0,0-1-3.38L31.65,0C32.16,1.38,32.53,2.47,32.75,3.3Z"/><path d="M63.22,5.77H61.85A24.3,24.3,0,0,1,59.28,14a10.24,10.24,0,0,0,4.1,3.57,5.73,5.73,0,0,0-1.3,1.63,11.41,11.41,0,0,1-4-3.48,14,14,0,0,1-4.46,3.55,5.58,5.58,0,0,0-1.12-1.7A11.32,11.32,0,0,0,57,13.94a21.5,21.5,0,0,1-1.93-5.23c-.35.58-.71,1.13-1.08,1.66a7.89,7.89,0,0,0-1.16-1.06H50.56v4.77l3.26-.68L54,15.14q-6.45,1.53-9.63,2.22L44,15.43l1.16-.23v-9h1.74v8.67l1.75-.37V3.38H44.45V1.51h9.41V3.38h-3.3V7.49h2.6v.64a22.23,22.23,0,0,0,2.76-8l1.9.33C57.63,1.53,57.35,2.69,57,4h6.23Zm-6.83,0-.12.33a24.2,24.2,0,0,0,1.91,6,22.84,22.84,0,0,0,1.74-6.28Z"/><path d="M71.37,8.21l-1.08,1.6a31.86,31.86,0,0,0-3.88-2.24l1.06-1.45A26,26,0,0,1,71.37,8.21Zm-2.8,11-1.7-1.3a52.66,52.66,0,0,0,4-6.64l1.43,1.29Q70.41,16.19,68.57,19.18ZM72.72,2.55,71.6,4.17a26.33,26.33,0,0,0-3.95-2.32L68.75.42A29,29,0,0,1,72.72,2.55Zm12.71,6.2-1.78,1L83,8.46q-6.63.48-8.25.62a9.57,9.57,0,0,0-2.16.36A11.1,11.1,0,0,0,72,7.59c.62-.14,1.65-1.42,3.09-3.86A27.46,27.46,0,0,0,76.86.15l2,.58A45.24,45.24,0,0,1,75,7.16l6.94-.42a32.81,32.81,0,0,0-2.42-3.15l1.68-.85a36.27,36.27,0,0,1,2.46,3.09A21.66,21.66,0,0,1,85.43,8.75ZM73.28,18.56V11H83.94v7.61ZM82,12.76H75.16v4H82Z"/><path d="M107.39,7.9H99.82a18.19,18.19,0,0,0,3.1,5.82,12.25,12.25,0,0,0,4.85,3.64,6.15,6.15,0,0,0-1.43,1.8q-5.41-2.51-8-9.56a14.38,14.38,0,0,1-8,9.56,6,6,0,0,0-1.47-1.61A13,13,0,0,0,96.63,7.9H89.27v-2H97c.14-1.11.22-3,.25-5.72h2.1A57.23,57.23,0,0,1,99,5.91h8.35Z"/><path d="M129.81,13.71v1.58h-8.06v2a2.34,2.34,0,0,1-.2,1.07,1.49,1.49,0,0,1-.84.59,14.1,14.1,0,0,1-3.32.22,5.85,5.85,0,0,0-.62-1.63c.76,0,1.43,0,2,0a2.85,2.85,0,0,0,1-.08c.07,0,.1-.14.1-.28V15.29h-8.51V13.71h8.51V13a17.86,17.86,0,0,0,2.8-1.41h-7.43V10.14h9.4L125,10l1.1,1a20,20,0,0,1-4.39,2.51v.17ZM113.59,9v2.51h-1.82v-4h1.58L113,1.39A36.82,36.82,0,0,0,117,.33l.83,1.14a19,19,0,0,1-3.05.81l.06.83h2.84V4.36h-2.78l.06.95h2.8V6.53a12.15,12.15,0,0,0,1.75-1,13.83,13.83,0,0,0-1.35-.75l.93-.81c.58.29,1.07.56,1.45.79a5.82,5.82,0,0,0,.94-1l1.3.42a11,11,0,0,1-1.14,1.26,9.82,9.82,0,0,1,1.37,1.06l-1,.89a10.24,10.24,0,0,0-1.39-1.09,16.56,16.56,0,0,1-1.87,1.22h7.24c0-.18,0-.5.1-1H123.4V5.31h2.85l.08-.95h-2.82V3.11h2.9l0-.93h-3V.91h4.94c-.11,2.23-.26,4.43-.46,6.62h1.58v4h-1.91V9Zm1.52-2.41,0,1h3.55a4.24,4.24,0,0,0-1-1ZM123,2.84l-1,.87a7.85,7.85,0,0,0-1.28-1,11.27,11.27,0,0,1-1.79,1.14,7.84,7.84,0,0,0-1-.89,8.5,8.5,0,0,0,1.7-1,10.43,10.43,0,0,0-1.31-.68l.93-.81a13.21,13.21,0,0,1,1.39.73,5.58,5.58,0,0,0,.88-.92l1.3.36a9.89,9.89,0,0,1-1.08,1.22A8.26,8.26,0,0,1,123,2.84Z"/><path d="M149.62,12v1.2h2.8v1.54h-2.8v2.57a2.47,2.47,0,0,1-.19,1.1,1.1,1.1,0,0,1-.7.54,11.89,11.89,0,0,1-3.3.27,6.25,6.25,0,0,0-.56-1.64,15.25,15.25,0,0,0,2.76,0,.4.4,0,0,0,.12-.31V14.75h-5.37a13.28,13.28,0,0,1,2.35,2.46l-1.5,1a14.81,14.81,0,0,0-2.53-2.82l1.1-.66h-3.11V13.21h9.06V12.07q-5,.16-8.48.23l-.17-1.49c1.61,0,3.48,0,5.63-.07V9.67H140V4.11h4.69v-1h-5.52V1.83a31.83,31.83,0,0,1-1.64,3.33v14h-1.83V8A24.51,24.51,0,0,1,134,10.18a11.64,11.64,0,0,0-1.06-1.95,18.45,18.45,0,0,0,2.76-3.56A26.16,26.16,0,0,0,137.82.25l1.8.54c-.07.19-.18.48-.35.87h5.46V.33h1.88V1.66h5.6V3.11h-5.6v1h4.88V9.67h-1.27a13.94,13.94,0,0,1,2.35,2.3l-1.37.85a10.17,10.17,0,0,0-.69-.85ZM141.8,5.25V6.33h2.93V5.25Zm0,3.27h2.93V7.42H141.8Zm7.82-3.27h-3V6.33h3Zm-3,3.27h3V7.42h-3Zm0,1.15v1.05l2.6,0-1-.87.25-.14Z"/><path d="M174.84,10.37l-1.08,1.2-.25-.25V18.4H162.89V11.68l-.64.33-1-1.25-1.35.5v5.81c0,.91-.25,1.5-.75,1.76a6.29,6.29,0,0,1-2.7.38,4.87,4.87,0,0,0-.51-1.79h2.11l.08-5.49-2.34.83-.37-1.87c.51-.15,1.41-.44,2.71-.87V6h-2.4V4.21h2.4v-4h1.77v4H162V5.68h5.25V2.55c-1.69.11-3.24.19-4.65.23l-.41-1.43A70.39,70.39,0,0,0,172.93.27l1,1.43a45.87,45.87,0,0,1-5,.69V5.68h1.08a19.89,19.89,0,0,0,1.28-3.23l1.66.47c-.55,1.26-1,2.18-1.28,2.76h2.78V7.2h-3.94A28.44,28.44,0,0,1,174.84,10.37Zm-13.19-1.6.27,1.48a11.07,11.07,0,0,0,3.88-3h-3.88V6h-2V9.4Zm1.78-5.53L165,2.76a21.58,21.58,0,0,1,1.12,2.32l-1.6.54A21.78,21.78,0,0,0,163.43,3.24ZM164,11h9.13A38.54,38.54,0,0,0,169,7.92v2.64h-1.74V7.92A13,13,0,0,1,164,11Zm3.28,3V12.51h-2.7V14Zm-2.7,1.37V17h2.7v-1.6ZM171.73,14V12.51h-2.86V14Zm-2.86,3h2.86v-1.6h-2.86Z"/><path d="M196.7,13.71v1.58h-8.07v2a2.35,2.35,0,0,1-.19,1.07,1.57,1.57,0,0,1-.84.59,14.1,14.1,0,0,1-3.32.22,5.85,5.85,0,0,0-.62-1.63c.76,0,1.43,0,2,0a2.85,2.85,0,0,0,1-.08.33.33,0,0,0,.1-.28V15.29h-8.51V13.71h8.51V13a17.86,17.86,0,0,0,2.8-1.41h-7.43V10.14h9.4l.41-.1,1.1,1a20.06,20.06,0,0,1-4.4,2.51v.17ZM180.48,9v2.51h-1.82v-4h1.57l-.37-6.14A36.77,36.77,0,0,0,183.92.33l.83,1.14a18.55,18.55,0,0,1-3,.81l.06.83h2.84V4.36h-2.78l.06.95h2.8V6.53a11.49,11.49,0,0,0,1.74-1,12.69,12.69,0,0,0-1.34-.75L186,4c.58.29,1.06.56,1.45.79a5.38,5.38,0,0,0,.93-1l1.31.42a11,11,0,0,1-1.14,1.26,10.45,10.45,0,0,1,1.37,1.06l-1,.89a9.64,9.64,0,0,0-1.39-1.09,15.4,15.4,0,0,1-1.86,1.22H193c0-.18.05-.5.1-1h-2.76V5.31h2.84l.09-.95H190.4V3.11h2.9l0-.93h-3.05V.91h4.94c-.11,2.23-.26,4.43-.46,6.62h1.58v4h-1.91V9ZM182,6.57l0,1h3.54a4.2,4.2,0,0,0-1-1Zm7.86-3.73-1,.87a7.85,7.85,0,0,0-1.28-1,11.73,11.73,0,0,1-1.79,1.14A8.57,8.57,0,0,0,184.78,3a8.79,8.79,0,0,0,1.7-1,10.43,10.43,0,0,0-1.31-.68l.93-.81a13.21,13.21,0,0,1,1.39.73,5.55,5.55,0,0,0,.87-.92l1.31.36a11.86,11.86,0,0,1-1.08,1.22A8.26,8.26,0,0,1,189.86,2.84Z"/><path d="M206,.93l1.27.73c-.71,2.05-1.35,3.82-1.93,5.33A7,7,0,0,1,207,11.41a3.06,3.06,0,0,1-.85,2.53,2.11,2.11,0,0,1-1,.38,11.76,11.76,0,0,1-1.52.07,3.66,3.66,0,0,0-.44-1.68q.76,0,1.08,0a1.09,1.09,0,0,0,.58-.17,1.67,1.67,0,0,0,.42-1.35,6,6,0,0,0-1.7-4c.55-1.45,1-2.95,1.45-4.48h-2.26V19.16h-1.7V1h4.62ZM216.13,17.3h1.17c.19,0,.32-.15.39-.46a12.81,12.81,0,0,0,.12-2.09,3.81,3.81,0,0,0,1.62.7,7.16,7.16,0,0,1-.53,2.78,1.48,1.48,0,0,1-1.4.71h-1.68a2,2,0,0,1-1.57-.47,2.85,2.85,0,0,1-.4-1.79v-4.9h-1.8a10.51,10.51,0,0,1-1.38,4.71,7.24,7.24,0,0,1-3.87,2.72,4.3,4.3,0,0,0-1.1-1.54A6,6,0,0,0,209,15.54a8,8,0,0,0,1.14-3.76h-2.69V10.06h11.67v1.72h-3.48v4.87a1.11,1.11,0,0,0,.08.53A.44.44,0,0,0,216.13,17.3Zm-7.07-9.25V6.47h-1.64V2.65h5a15.29,15.29,0,0,0-1-2.13L213.27,0a12.68,12.68,0,0,1,1.27,2.65h4.52V6.47h-1.64V8.05Zm8.15-3.72h-8v2h8Z"/><path d="M7,34.61a3.58,3.58,0,0,1-2.68,1.13,3.4,3.4,0,0,1-2.62-1.12,4.26,4.26,0,0,1-1-3,4.23,4.23,0,0,1,1-3,3.59,3.59,0,0,1,2.73-1.11,3,3,0,0,1,2.31,1l-.41.43a2.54,2.54,0,0,0-1.9-.8A2.76,2.76,0,0,0,2.2,29a3.83,3.83,0,0,0-.81,2.58,3.9,3.9,0,0,0,.81,2.59,2.59,2.59,0,0,0,2.09,1,3.09,3.09,0,0,0,2.26-1Z"/><path d="M16.32,31.59a4.36,4.36,0,0,1-1,3,3.35,3.35,0,0,1-2.62,1.13,3.37,3.37,0,0,1-2.63-1.13,4.41,4.41,0,0,1-1-3,4.31,4.31,0,0,1,1-3,3.39,3.39,0,0,1,2.63-1.11,3.36,3.36,0,0,1,2.62,1.11A4.26,4.26,0,0,1,16.32,31.59Zm-6.51,0a4,4,0,0,0,.79,2.59,2.54,2.54,0,0,0,2.09,1,2.57,2.57,0,0,0,2.1-1,4,4,0,0,0,.79-2.59A3.93,3.93,0,0,0,14.79,29a2.62,2.62,0,0,0-2.11-.94,2.57,2.57,0,0,0-2.09.94A3.92,3.92,0,0,0,9.81,31.59Z"/><path d="M19.53,35.6v-8h.73V35h4v.57Z"/><path d="M27,35.6v-8h.73V35h4v.57Z"/><path d="M34.49,35.6v-8h4.85v.56H35.21V31.1h3.48v.55H35.21V35h4.26v.57Z"/><path d="M48.46,34.83a4.08,4.08,0,0,1-5.38-.21,4.23,4.23,0,0,1-1-3,4.16,4.16,0,0,1,1.08-3,3.77,3.77,0,0,1,2.83-1.11,3.39,3.39,0,0,1,2.43,1l-.42.43a2.73,2.73,0,0,0-2-.8,3,3,0,0,0-2.31.94,3.7,3.7,0,0,0-.85,2.58,3.81,3.81,0,0,0,.82,2.59,2.87,2.87,0,0,0,2.29,1,2.7,2.7,0,0,0,1.87-.57V32.19h-2v-.56h2.72Z"/><path d="M51.88,35.6v-8h4.85v.56H52.6V31.1h3.48v.55H52.6V35h4.26v.57Z"/><path d="M70.56,31.59a4.36,4.36,0,0,1-1,3,3.61,3.61,0,0,1-5.25,0,4.41,4.41,0,0,1-1-3,4.31,4.31,0,0,1,1-3,3.66,3.66,0,0,1,5.25,0A4.26,4.26,0,0,1,70.56,31.59Zm-6.51,0a4,4,0,0,0,.79,2.59,2.54,2.54,0,0,0,2.09,1,2.57,2.57,0,0,0,2.1-1,4,4,0,0,0,.79-2.59A3.93,3.93,0,0,0,69,29a2.61,2.61,0,0,0-2.11-.94,2.57,2.57,0,0,0-2.09.94A3.92,3.92,0,0,0,64.05,31.59Z"/><path d="M73.78,35.6v-8h4.83v.56H74.5v3.07H78v.56H74.5V35.6Z"/><path d="M91,34.61a3.58,3.58,0,0,1-2.68,1.13,3.4,3.4,0,0,1-2.62-1.12,4.31,4.31,0,0,1-1-3,4.23,4.23,0,0,1,1-3,3.59,3.59,0,0,1,2.73-1.11,3,3,0,0,1,2.31,1l-.41.43a2.54,2.54,0,0,0-1.9-.8,2.76,2.76,0,0,0-2.21.94,3.83,3.83,0,0,0-.81,2.58,3.9,3.9,0,0,0,.81,2.59,2.59,2.59,0,0,0,2.09,1,3.09,3.09,0,0,0,2.26-1Z"/><path d="M100.38,31.59a4.36,4.36,0,0,1-1,3,3.61,3.61,0,0,1-5.25,0,4.41,4.41,0,0,1-1-3,4.31,4.31,0,0,1,1-3,3.66,3.66,0,0,1,5.25,0A4.26,4.26,0,0,1,100.38,31.59Zm-6.51,0a4,4,0,0,0,.79,2.59,2.54,2.54,0,0,0,2.09,1,2.57,2.57,0,0,0,2.1-1,4,4,0,0,0,.79-2.59A3.93,3.93,0,0,0,98.85,29a2.61,2.61,0,0,0-2.11-.94,2.57,2.57,0,0,0-2.09.94A3.92,3.92,0,0,0,93.87,31.59Z"/><path d="M103.6,35.6v-8h1l1.8,4.58c.2.49.43,1.07.69,1.75h0l.37-1c.16-.43.25-.69.28-.77l1.81-4.58h1v8h-.69V30.55c0-.43,0-1.16.09-2.2h0l-.69,1.78-1.83,4.62h-.58l-1.85-4.62-.69-1.78h0c.06,1,.09,1.77.09,2.2V35.6Z"/><path d="M114.26,35.6v-8h1L117,32.21c.2.49.42,1.07.68,1.75h.05l.37-1c.15-.43.25-.69.28-.77l1.8-4.58h1v8h-.68V30.55c0-.43,0-1.16.08-2.2h0l-.69,1.78L118,34.75h-.58l-1.85-4.62-.68-1.78h0c0,1,.08,1.77.08,2.2V35.6Z"/><path d="M127.88,35.74a3.67,3.67,0,0,1-1.13-.16,2.69,2.69,0,0,1-1-.52,3.19,3.19,0,0,1-.91-2.58V27.63h.72v4.82a2.86,2.86,0,0,0,.63,2.08,2.23,2.23,0,0,0,1.65.62,2.31,2.31,0,0,0,1.67-.62,2.82,2.82,0,0,0,.64-2.08V27.63h.69v4.85c0,1.69-.62,2.72-1.86,3.1A3.81,3.81,0,0,1,127.88,35.74Z"/><path d="M134.61,35.6v-8h.74l3.58,5.48,1,1.6H140c-.07-1.05-.1-1.83-.1-2.36V27.63h.69v8h-.75l-3.57-5.49-1-1.59h-.06c.07,1.36.1,2.13.1,2.3V35.6Z"/><path d="M144.31,35.6v-8H145v8Z"/><path d="M154.55,34.61a3.56,3.56,0,0,1-2.67,1.13,3.38,3.38,0,0,1-2.62-1.12,4.26,4.26,0,0,1-1-3,4.23,4.23,0,0,1,1.05-3A3.55,3.55,0,0,1,152,27.49a3,3,0,0,1,2.31,1l-.41.43a2.52,2.52,0,0,0-1.9-.8,2.74,2.74,0,0,0-2.2.94A3.83,3.83,0,0,0,149,31.6a3.9,3.9,0,0,0,.8,2.59,2.62,2.62,0,0,0,2.1,1,3.08,3.08,0,0,0,2.25-1Z"/><path d="M156.34,35.6l3.07-8h.75l3.06,8h-.77l-1-2.68h-3.42l-1,2.68ZM158.8,31l-.54,1.45h3L160.76,31q-.47-1.17-1-2.73h-.05C159.5,29,159.18,29.93,158.8,31Z"/><path d="M167,35.6V28.19h-2.75v-.56h6.25v.56h-2.76V35.6Z"/><path d="M173.4,35.6v-8h.72v8Z"/><path d="M184.59,31.59a4.41,4.41,0,0,1-1,3,3.61,3.61,0,0,1-5.25,0,4.36,4.36,0,0,1-1-3,4.26,4.26,0,0,1,1-3,3.66,3.66,0,0,1,5.25,0A4.31,4.31,0,0,1,184.59,31.59Zm-6.52,0a4,4,0,0,0,.79,2.59,2.75,2.75,0,0,0,4.19,0,4,4,0,0,0,.79-2.59,3.87,3.87,0,0,0-.79-2.57,2.6,2.6,0,0,0-2.1-.94,2.58,2.58,0,0,0-2.1.94A3.92,3.92,0,0,0,178.07,31.59Z"/><path d="M187.8,35.6v-8h.75l3.58,5.48,1,1.6h.06c-.06-1.05-.09-1.83-.09-2.36V27.63h.68v8H193l-3.57-5.49-1-1.59h-.06c.06,1.36.1,2.13.1,2.3V35.6Z"/><path d="M1.19,49.62v-8h.74l3.58,5.47,1,1.61h.06c-.07-1-.1-1.84-.1-2.36V41.65h.69v8H6.39L2.82,44.13l-1-1.6H1.77c.07,1.36.1,2.13.1,2.31v4.78Z"/><path d="M9.71,49.62l3.07-8h.74l3.07,8h-.77l-1-2.68H11.43l-1,2.68ZM12.16,45l-.54,1.44h3L14.12,45q-.45-1.17-1-2.73h-.05C12.86,43,12.55,44,12.16,45Z"/><path d="M20.4,49.62V42.2H17.65v-.55H23.9v.55H21.13v7.42Z"/><path d="M26.76,49.62v-8h.72v8Z"/><path d="M38,45.61a4.38,4.38,0,0,1-1,3,3.6,3.6,0,0,1-5.26,0,4.38,4.38,0,0,1-1-3,4.29,4.29,0,0,1,1-3,3.65,3.65,0,0,1,5.26,0A4.29,4.29,0,0,1,38,45.61Zm-6.52,0a4,4,0,0,0,.79,2.59,2.55,2.55,0,0,0,2.09,1,2.58,2.58,0,0,0,2.1-1,4,4,0,0,0,.79-2.59A3.86,3.86,0,0,0,36.42,43a2.61,2.61,0,0,0-2.11-.94,2.57,2.57,0,0,0-2.09.94A3.91,3.91,0,0,0,31.44,45.6Z"/><path d="M41.17,49.62v-8h.74l3.58,5.47,1,1.61h.06c-.07-1-.1-1.84-.1-2.36V41.65h.69v8h-.75L42.8,44.13l-1-1.6h-.07c.07,1.36.1,2.13.1,2.31v4.78Z"/><path d="M49.69,49.62l3.07-8h.74l3.07,8H55.8l-1-2.68H51.41l-1,2.68ZM52.14,45l-.54,1.44h3L54.1,45q-.45-1.17-1-2.73h0C52.85,43,52.53,44,52.14,45Z"/><path d="M59.13,49.62v-8h.72v7.4h4v.57Z"/><path d="M76.25,48.62a3.53,3.53,0,0,1-2.67,1.14A3.4,3.4,0,0,1,71,48.64a4.89,4.89,0,0,1,0-6A3.59,3.59,0,0,1,73.7,41.5a3,3,0,0,1,2.31,1l-.41.42a2.55,2.55,0,0,0-1.9-.79,2.74,2.74,0,0,0-2.2.94,3.83,3.83,0,0,0-.82,2.57,3.93,3.93,0,0,0,.81,2.6,2.62,2.62,0,0,0,2.1,1,3.08,3.08,0,0,0,2.25-1Z"/><path d="M79.22,49.62v-8h.72V45.1H84.5V41.65h.72v8H84.5V45.67H79.94v3.95Z"/><path d="M89,49.62v-8h4.85v.55H89.68v2.91h3.48v.56H89.68v3.38h4.26v.57Z"/><path d="M97.05,49.62v-8h.75l3.58,5.47,1,1.61h.06c-.07-1-.1-1.84-.1-2.36V41.65H103v8h-.75l-3.57-5.49-1-1.6h-.06c.07,1.36.1,2.13.1,2.31v4.78Z"/><path d="M112.64,48.85a4.1,4.1,0,0,1-5.39-.21,4.23,4.23,0,0,1-1-3,4.14,4.14,0,0,1,1.08-3,3.77,3.77,0,0,1,2.83-1.12,3.4,3.4,0,0,1,2.43,1l-.42.42a2.76,2.76,0,0,0-2-.79,3,3,0,0,0-2.31.94,3.75,3.75,0,0,0-.85,2.58,3.88,3.88,0,0,0,.82,2.59,2.87,2.87,0,0,0,2.3,1,2.69,2.69,0,0,0,1.86-.57V46.2h-2v-.55h2.73Z"/><path d="M121.82,48.62a3.53,3.53,0,0,1-2.67,1.14,3.42,3.42,0,0,1-2.62-1.12,4.89,4.89,0,0,1,0-6,3.59,3.59,0,0,1,2.73-1.12,3,3,0,0,1,2.31,1l-.41.42a2.55,2.55,0,0,0-1.9-.79,2.74,2.74,0,0,0-2.2.94,3.82,3.82,0,0,0-.81,2.57,3.92,3.92,0,0,0,.8,2.6,2.62,2.62,0,0,0,2.1,1,3.08,3.08,0,0,0,2.25-1Z"/><path d="M124.79,49.62v-8h.72V45.1h4.56V41.65h.72v8h-.72V45.67h-4.56v3.95Z"/><path d="M134.53,49.62v-8h.72v8Z"/><path d="M145.84,49.76a4,4,0,0,1-1.14-.16,2.72,2.72,0,0,1-.94-.52,3.2,3.2,0,0,1-.92-2.58V41.65h.72v4.82a2.82,2.82,0,0,0,.63,2.07,2.22,2.22,0,0,0,1.65.63,2.28,2.28,0,0,0,1.67-.63,2.77,2.77,0,0,0,.65-2.07V41.65h.68V46.5q0,2.52-1.86,3.09A3.78,3.78,0,0,1,145.84,49.76Z"/><path d="M152.56,49.62v-8h.74l3.59,5.47,1,1.61h.06c-.06-1-.1-1.84-.1-2.36V41.65h.69v8h-.75l-3.57-5.49-1-1.6h-.06q.09,2,.09,2.31v4.78Z"/><path d="M162.26,49.62v-8H163v8Z"/><path d="M168.38,49.62l-2.87-8h.77l1.57,4.58c.59,1.73.89,2.62.9,2.66h.05c.22-.59.54-1.48.93-2.66l1.56-4.58H172l-2.85,8Z"/><path d="M174.55,49.62v-8h4.84v.55h-4.12v2.91h3.48v.56h-3.48v3.38h4.26v.57Z"/><path d="M182.64,49.62v-8h2.56c2,0,2.93.71,2.93,2.13a1.94,1.94,0,0,1-.59,1.48,2.72,2.72,0,0,1-1.6.7l2.37,3.66h-.82L185.16,46h-1.8v3.6Zm.72-4.15H185c1.58,0,2.36-.56,2.36-1.69a1.35,1.35,0,0,0-.59-1.22,3.43,3.43,0,0,0-1.77-.37h-1.67Z"/><path d="M193.29,49.76a4,4,0,0,1-3-1.19l.45-.46a3.42,3.42,0,0,0,2.53,1.06,2.54,2.54,0,0,0,1.54-.42,1.31,1.31,0,0,0,.57-1.1,1.28,1.28,0,0,0-.37-1,4.57,4.57,0,0,0-1.18-.64l-1.31-.53a2.85,2.85,0,0,1-1.63-1.23,1.86,1.86,0,0,1-.15-.75,1.72,1.72,0,0,1,.73-1.44,3,3,0,0,1,1.87-.57,3.38,3.38,0,0,1,2.47,1l-.41.42a2.92,2.92,0,0,0-2.06-.79,2.24,2.24,0,0,0-1.36.37,1.14,1.14,0,0,0-.51,1,1.16,1.16,0,0,0,.52,1,5.78,5.78,0,0,0,1,.49l1.31.52a4.17,4.17,0,0,1,1.37.83,1.82,1.82,0,0,1,.47,1.34,1.85,1.85,0,0,1-.78,1.5A3.24,3.24,0,0,1,193.29,49.76Z"/><path d="M199.15,49.62v-8h.72v8Z"/><path d="M205.49,49.62V42.2h-2.76v-.55H209v.55h-2.77v7.42Z"/><path d="M213.07,49.62V46.41l-2.63-4.76h.77l1.29,2.43c.08.17.23.45.43.83l.48.9h.05c.46-.81.78-1.39.94-1.73l1.28-2.43h.75l-2.63,4.76v3.21Z"/></g></g></svg>